<?xml version="1.0" encoding="UTF-8"?>
<svg version="1.1" xmlns="http://www.w3.org/2000/svg" width="222" height="212">
<path d="M0 0 C13.89972653 -0.15696053 26.90821958 -0.14158679 40 5 C40.67885254 5.25974609 41.35770508 5.51949219 42.05712891 5.78710938 C69.15100853 16.21030695 89.47078212 33.97600033 101.87646484 60.43652344 C110.15748044 79.33062681 114.83047447 99.92065912 120.25927734 119.76049805 C127.6306976 156.53530438 127.6306976 156.53530438 147.1875 186.3125 C151.38260403 188.51335757 155.36127953 188.84714221 160 188 C162.51998778 186.87608545 164.65567618 185.48774396 167 184 C169.9375 183.25 169.9375 183.25 172 183 C173.97276801 185.13058945 174.96597161 186.37047474 175.125 189.3125 C171.1488879 198.81099001 159.1113579 205.2041754 150 209 C142.50521273 211.54433901 135.51912798 212.52285634 127.625 212.4375 C126.61840332 212.42847656 125.61180664 212.41945312 124.57470703 212.41015625 C106.44069745 211.98904717 92.66566694 203.6431702 80 191 C79.38769531 190.39929688 78.77539062 189.79859375 78.14453125 189.1796875 C70.6190829 181.22372151 59 165.19561844 59 154 C44.48 154.33 29.96 154.66 15 155 C22.49140066 173.72850164 29.41872072 190.32470223 42.23046875 205.671875 C44 208 44 208 44 210 C13.97 210 -16.06 210 -47 210 C-47 203.04935336 -46.97248136 197.11050074 -45.75 190.4375 C-45.61940186 189.68807129 -45.48880371 188.93864258 -45.35424805 188.16650391 C-43.84236748 179.71997906 -41.94565951 171.35547179 -40 163 C-39.34 163 -38.68 163 -38 163 C-37.88527344 161.99195313 -37.77054688 160.98390625 -37.65234375 159.9453125 C-37.00108683 156.00657306 -35.94685143 152.61315964 -34.5625 148.875 C-34.13066406 147.69679687 -33.69882812 146.51859375 -33.25390625 145.3046875 C-32.19859953 142.52341185 -31.11819388 139.75647794 -30 137 C-29.34 137 -28.68 137 -28 137 C-27.86078125 135.98679688 -27.86078125 135.98679688 -27.71875 134.953125 C-26.82212849 131.26918012 -25.22888676 128.09681573 -23.5 124.75 C-23.14107666 124.04746094 -22.78215332 123.34492187 -22.41235352 122.62109375 C-21.65441364 121.1423148 -20.89337254 119.66512167 -20.12939453 118.18945312 C-19.07124309 116.13811242 -18.0320167 114.07825359 -16.99609375 112.015625 C-6.53826777 91.46024023 6.21600547 71.94096606 20.52734375 53.8671875 C21.01332031 53.25101563 21.49929687 52.63484375 22 52 C22.57878906 51.40445313 23.15757813 50.80890625 23.75390625 50.1953125 C25.66235814 46.83308692 24.85930829 44.72114561 24 41 C23.0569916 37.80616647 21.9616951 34.68741713 20.8125 31.5625 C20.39387695 30.35110352 20.39387695 30.35110352 19.96679688 29.11523438 C16.993133 20.96883952 12.79182533 14.22057205 5 10 C3.906875 9.67 2.81375 9.34 1.6875 9 C-1 8 -1 8 -2 6.125 C-2 3.58405559 -1.18503131 2.21267565 0 0 Z M29 58 C12.02440233 79.83871373 5.69027997 101.5163742 8.34375 129.16796875 C9.16944277 135.58773003 10.37798535 139.88196582 13 146 C27.19 145.67 41.38 145.34 56 145 C55.11699219 141.97585937 54.23398438 138.95171875 53.32421875 135.8359375 C52.74247161 133.84254138 52.16076096 131.84913461 51.57910156 129.85571289 C50.31270934 125.51601 49.04494238 121.17671171 47.77636719 116.83764648 C44.71610676 106.36292083 41.67219106 95.8843633 38.69140625 85.38671875 C37.94645898 82.77337739 37.2010991 80.16015396 36.45571899 77.54693604 C35.9855615 75.89177834 35.51825071 74.23580935 35.05380249 72.57904053 C34.41247861 70.29157966 33.76193106 68.00693341 33.109375 65.72265625 C32.92351334 65.04893478 32.73765167 64.37521332 32.54615784 63.68107605 C32.09034727 62.10228581 31.55285219 60.54748064 31 59 C30.34 58.67 29.68 58.34 29 58 Z " fill="#000000" transform="translate(47,0)"/>
<path d="M0 0 C1.32 0.33 2.64 0.66 4 1 C2.68 1.33 1.36 1.66 0 2 C0 1.34 0 0.68 0 0 Z " fill="#000000" transform="translate(63,155)"/>
<path d="" fill="#000000" transform="translate(0,0)"/>
</svg>
